<svg width="40" height="40" viewBox="0 0 40 40" fill="none" xmlns="http://www.w3.org/2000/svg">
<path d="M0 4C0 1.79086 1.79086 0 4 0H36C38.2091 0 40 1.79086 40 4V36C40 38.2091 38.2091 40 36 40H4C1.79086 40 0 38.2091 0 36V4Z" fill="#090E13"/>
<path d="M20.168 30.192C18.6933 30.192 17.3867 29.9307 16.248 29.408C15.1093 28.8853 14.2133 28.12 13.56 27.112C12.9253 26.0853 12.608 24.844 12.608 23.388V22.688H15.604V23.388C15.604 24.7693 16.0147 25.8053 16.836 26.496C17.676 27.1867 18.7867 27.532 20.168 27.532C21.568 27.532 22.6227 27.2427 23.332 26.664C24.0413 26.0667 24.396 25.3013 24.396 24.368C24.396 23.752 24.228 23.248 23.892 22.856C23.556 22.464 23.08 22.156 22.464 21.932C21.848 21.6893 21.1107 21.4653 20.252 21.26L19.216 21.008C17.9653 20.7093 16.8733 20.3453 15.94 19.916C15.0253 19.468 14.316 18.88 13.812 18.152C13.308 17.424 13.056 16.4907 13.056 15.352C13.056 14.1947 13.336 13.2053 13.896 12.384C14.4747 11.5627 15.268 10.928 16.276 10.48C17.284 10.032 18.4693 9.808 19.832 9.808C21.1947 9.808 22.408 10.0413 23.472 10.508C24.5547 10.9747 25.404 11.6653 26.02 12.58C26.636 13.4947 26.944 14.6427 26.944 16.024V17.032H23.948V16.024C23.948 15.184 23.7707 14.5027 23.416 13.98C23.08 13.4573 22.604 13.0747 21.988 12.832C21.372 12.5893 20.6533 12.468 19.832 12.468C18.6373 12.468 17.704 12.72 17.032 13.224C16.3787 13.7093 16.052 14.3907 16.052 15.268C16.052 15.8653 16.192 16.36 16.472 16.752C16.7707 17.1253 17.2 17.4333 17.76 17.676C18.32 17.9187 19.02 18.1333 19.86 18.32L20.896 18.572C22.1653 18.852 23.2853 19.216 24.256 19.664C25.2267 20.0933 25.992 20.6813 26.552 21.428C27.112 22.1747 27.392 23.136 27.392 24.312C27.392 25.488 27.0933 26.5147 26.496 27.392C25.9173 28.2693 25.0867 28.96 24.004 29.464C22.9213 29.9493 21.6427 30.192 20.168 30.192Z" fill="#EFF1F8"/>
</svg>
